<?xml version="1.0" standalone="no"?>
<!DOCTYPE svg PUBLIC "-//W3C//DTD SVG 20010904//EN"
 "http://www.w3.org/TR/2001/REC-SVG-20010904/DTD/svg10.dtd">
<svg version="1.0" xmlns="http://www.w3.org/2000/svg"
 width="545.000000pt" height="545.000000pt" viewBox="0 0 545.000000 545.000000"
 preserveAspectRatio="xMidYMid meet">
<metadata>
Created by potrace 1.11, written by Peter Selinger 2001-2013
</metadata>
<g transform="translate(0.000000,545.000000) scale(0.100000,-0.100000)"
fill="#000000" stroke="none">
<path d="M3883 4579 c-82 -167 -385 -789 -673 -1381 -288 -592 -526 -1075
-529 -1072 -3 2 -217 440 -476 972 -273 561 -477 968 -486 970 -10 2 -88 -149
-266 -515 -139 -285 -522 -1071 -852 -1748 l-600 -1230 372 -3 c205 -1 377 0
382 2 6 2 224 442 485 979 261 536 477 974 480 972 3 -2 219 -442 480 -979
261 -537 479 -975 485 -973 5 2 224 443 485 980 261 537 477 977 480 977 3 0
219 -440 481 -978 261 -537 481 -977 487 -977 10 0 761 1520 808 1635 l14 36
-201 357 c-112 197 -205 354 -209 350 -4 -4 -96 -191 -205 -415 -109 -225
-201 -408 -204 -408 -4 0 -29 46 -57 103 l-51 102 203 416 204 417 -200 353
c-110 195 -203 355 -208 357 -4 1 -90 -169 -192 -378 -101 -209 -187 -377
-191 -373 -5 5 -28 51 -52 103 l-44 95 204 418 203 418 -202 357 c-110 196
-202 359 -204 361 -2 2 -70 -133 -151 -300z"/>
</g>
</svg>
